<mxfile host="app.diagrams.net" agent="Mozilla/5.0 (Windows NT 10.0; Win64; x64) AppleWebKit/537.36 (KHTML, like Gecko) Chrome/130.0.0.0 Safari/537.36" version="24.8.3">
  <diagram name="Page-1" id="ZeOuGSo947jYrAdGaZ3M">
    <mxGraphModel dx="2239" dy="806" grid="1" gridSize="10" guides="1" tooltips="1" connect="1" arrows="1" fold="1" page="1" pageScale="1" pageWidth="850" pageHeight="1100" math="0" shadow="0">
      <root>
        <mxCell id="0" />
        <mxCell id="1" parent="0" />
        <mxCell id="IInlYEUEXmsP3QdokoEn-71" value="" style="rounded=0;whiteSpace=wrap;html=1;container=0;fillColor=#f5f5f5;strokeColor=#666666;fillStyle=solid;fontColor=#333333;" vertex="1" parent="1">
          <mxGeometry x="680" y="470" width="160" height="160" as="geometry" />
        </mxCell>
        <mxCell id="IInlYEUEXmsP3QdokoEn-36" value="" style="rounded=1;whiteSpace=wrap;html=1;fillColor=#fff2cc;strokeColor=#d6b656;" vertex="1" parent="1">
          <mxGeometry x="400" y="480" width="210" height="140" as="geometry" />
        </mxCell>
        <mxCell id="IInlYEUEXmsP3QdokoEn-18" value="" style="rounded=1;whiteSpace=wrap;html=1;fillColor=#d5e8d4;strokeColor=#82b366;" vertex="1" parent="1">
          <mxGeometry x="730" y="270" width="240" height="150" as="geometry" />
        </mxCell>
        <mxCell id="IInlYEUEXmsP3QdokoEn-2" value="" style="rounded=1;whiteSpace=wrap;html=1;fillColor=#ffe6cc;strokeColor=#adadad;" vertex="1" parent="1">
          <mxGeometry x="400" y="120" width="210" height="310" as="geometry" />
        </mxCell>
        <mxCell id="IInlYEUEXmsP3QdokoEn-51" style="edgeStyle=orthogonalEdgeStyle;rounded=0;orthogonalLoop=1;jettySize=auto;html=1;entryX=1;entryY=0.75;entryDx=0;entryDy=0;exitX=0;exitY=0.5;exitDx=0;exitDy=0;" edge="1" parent="1" source="IInlYEUEXmsP3QdokoEn-4" target="IInlYEUEXmsP3QdokoEn-46">
          <mxGeometry relative="1" as="geometry">
            <Array as="points">
              <mxPoint x="80" y="240" />
              <mxPoint x="-20" y="240" />
              <mxPoint x="-20" y="215" />
            </Array>
          </mxGeometry>
        </mxCell>
        <mxCell id="IInlYEUEXmsP3QdokoEn-53" value="&lt;font face=&quot;Courier New&quot;&gt;user interations&lt;/font&gt;" style="edgeLabel;html=1;align=center;verticalAlign=middle;resizable=0;points=[];labelBackgroundColor=none;" vertex="1" connectable="0" parent="IInlYEUEXmsP3QdokoEn-51">
          <mxGeometry x="0.2298" y="-5" relative="1" as="geometry">
            <mxPoint x="-15" y="-77" as="offset" />
          </mxGeometry>
        </mxCell>
        <mxCell id="IInlYEUEXmsP3QdokoEn-54" value="&lt;font style=&quot;font-size: 11px;&quot; face=&quot;Courier New&quot;&gt;ui changes&lt;/font&gt;" style="edgeLabel;html=1;align=center;verticalAlign=middle;resizable=0;points=[];labelBackgroundColor=none;" vertex="1" connectable="0" parent="IInlYEUEXmsP3QdokoEn-51">
          <mxGeometry x="0.0524" y="-3" relative="1" as="geometry">
            <mxPoint x="41" y="13" as="offset" />
          </mxGeometry>
        </mxCell>
        <mxCell id="IInlYEUEXmsP3QdokoEn-4" value="" style="rounded=1;whiteSpace=wrap;html=1;fillColor=#dae8fc;strokeColor=#6c8ebf;" vertex="1" parent="1">
          <mxGeometry x="80" y="120" width="175" height="310" as="geometry" />
        </mxCell>
        <mxCell id="IInlYEUEXmsP3QdokoEn-32" style="edgeStyle=orthogonalEdgeStyle;rounded=0;orthogonalLoop=1;jettySize=auto;html=1;exitX=1;exitY=0.25;exitDx=0;exitDy=0;entryX=0;entryY=0.25;entryDx=0;entryDy=0;" edge="1" parent="1" source="IInlYEUEXmsP3QdokoEn-7" target="IInlYEUEXmsP3QdokoEn-16">
          <mxGeometry relative="1" as="geometry" />
        </mxCell>
        <mxCell id="IInlYEUEXmsP3QdokoEn-34" value="&lt;font face=&quot;Courier New&quot;&gt;filesystem requests&lt;/font&gt;" style="edgeLabel;html=1;align=center;verticalAlign=middle;resizable=0;points=[];labelBackgroundColor=none;" vertex="1" connectable="0" parent="IInlYEUEXmsP3QdokoEn-32">
          <mxGeometry x="-0.2657" y="5" relative="1" as="geometry">
            <mxPoint x="23" y="-10" as="offset" />
          </mxGeometry>
        </mxCell>
        <mxCell id="IInlYEUEXmsP3QdokoEn-66" style="edgeStyle=orthogonalEdgeStyle;rounded=0;orthogonalLoop=1;jettySize=auto;html=1;exitX=0.75;exitY=1;exitDx=0;exitDy=0;entryX=0.75;entryY=0;entryDx=0;entryDy=0;" edge="1" parent="1" source="IInlYEUEXmsP3QdokoEn-7" target="IInlYEUEXmsP3QdokoEn-9">
          <mxGeometry relative="1" as="geometry" />
        </mxCell>
        <mxCell id="IInlYEUEXmsP3QdokoEn-7" value="&lt;font face=&quot;Courier New&quot;&gt;SettingsWindow&lt;/font&gt;" style="rounded=0;whiteSpace=wrap;html=1;fillColor=default;" vertex="1" parent="1">
          <mxGeometry x="107.5" y="180" width="120" height="60" as="geometry" />
        </mxCell>
        <mxCell id="IInlYEUEXmsP3QdokoEn-8" value="&lt;font face=&quot;Courier New&quot;&gt;QT GUI&lt;/font&gt;" style="text;html=1;align=center;verticalAlign=middle;whiteSpace=wrap;rounded=0;" vertex="1" parent="1">
          <mxGeometry x="137.5" y="130" width="60" height="30" as="geometry" />
        </mxCell>
        <mxCell id="IInlYEUEXmsP3QdokoEn-11" style="edgeStyle=orthogonalEdgeStyle;rounded=0;orthogonalLoop=1;jettySize=auto;html=1;entryX=0.25;entryY=1;entryDx=0;entryDy=0;exitX=0.25;exitY=0;exitDx=0;exitDy=0;" edge="1" parent="1" source="IInlYEUEXmsP3QdokoEn-9" target="IInlYEUEXmsP3QdokoEn-7">
          <mxGeometry relative="1" as="geometry">
            <Array as="points">
              <mxPoint x="138" y="290" />
              <mxPoint x="138" y="290" />
            </Array>
          </mxGeometry>
        </mxCell>
        <mxCell id="IInlYEUEXmsP3QdokoEn-9" value="&lt;font face=&quot;Courier New&quot;&gt;MainWindow&lt;/font&gt;" style="rounded=0;whiteSpace=wrap;html=1;fillColor=default;" vertex="1" parent="1">
          <mxGeometry x="107.5" y="320" width="120" height="60" as="geometry" />
        </mxCell>
        <mxCell id="IInlYEUEXmsP3QdokoEn-15" value="&lt;font face=&quot;Courier New&quot;&gt;File Service Library&lt;/font&gt;" style="text;html=1;align=center;verticalAlign=middle;whiteSpace=wrap;rounded=0;" vertex="1" parent="1">
          <mxGeometry x="450" y="130" width="110" height="30" as="geometry" />
        </mxCell>
        <mxCell id="IInlYEUEXmsP3QdokoEn-28" style="edgeStyle=orthogonalEdgeStyle;rounded=0;orthogonalLoop=1;jettySize=auto;html=1;exitX=0.75;exitY=1;exitDx=0;exitDy=0;entryX=0.75;entryY=0;entryDx=0;entryDy=0;" edge="1" parent="1" source="IInlYEUEXmsP3QdokoEn-16" target="IInlYEUEXmsP3QdokoEn-17">
          <mxGeometry relative="1" as="geometry" />
        </mxCell>
        <mxCell id="IInlYEUEXmsP3QdokoEn-33" style="edgeStyle=orthogonalEdgeStyle;rounded=0;orthogonalLoop=1;jettySize=auto;html=1;exitX=0;exitY=0.75;exitDx=0;exitDy=0;entryX=1;entryY=0.75;entryDx=0;entryDy=0;" edge="1" parent="1" source="IInlYEUEXmsP3QdokoEn-16" target="IInlYEUEXmsP3QdokoEn-7">
          <mxGeometry relative="1" as="geometry" />
        </mxCell>
        <mxCell id="IInlYEUEXmsP3QdokoEn-35" value="&lt;font face=&quot;Courier New&quot;&gt;return codes&lt;/font&gt;" style="edgeLabel;html=1;align=center;verticalAlign=middle;resizable=0;points=[];labelBackgroundColor=none;" vertex="1" connectable="0" parent="IInlYEUEXmsP3QdokoEn-33">
          <mxGeometry x="0.1343" y="-8" relative="1" as="geometry">
            <mxPoint y="23" as="offset" />
          </mxGeometry>
        </mxCell>
        <mxCell id="IInlYEUEXmsP3QdokoEn-16" value="&lt;span style=&quot;font-family: &amp;quot;Courier New&amp;quot;;&quot;&gt;FileService&lt;/span&gt;" style="rounded=0;whiteSpace=wrap;html=1;" vertex="1" parent="1">
          <mxGeometry x="445" y="180" width="120" height="60" as="geometry" />
        </mxCell>
        <mxCell id="IInlYEUEXmsP3QdokoEn-22" style="edgeStyle=orthogonalEdgeStyle;rounded=0;orthogonalLoop=1;jettySize=auto;html=1;exitX=1;exitY=0.25;exitDx=0;exitDy=0;entryX=0;entryY=0.25;entryDx=0;entryDy=0;" edge="1" parent="1" source="IInlYEUEXmsP3QdokoEn-17" target="IInlYEUEXmsP3QdokoEn-20">
          <mxGeometry relative="1" as="geometry" />
        </mxCell>
        <mxCell id="IInlYEUEXmsP3QdokoEn-25" value="&lt;font face=&quot;Courier New&quot;&gt;segment data&lt;/font&gt;" style="edgeLabel;html=1;align=center;verticalAlign=middle;resizable=0;points=[];labelBackgroundColor=none;" vertex="1" connectable="0" parent="IInlYEUEXmsP3QdokoEn-22">
          <mxGeometry x="0.0222" y="1" relative="1" as="geometry">
            <mxPoint x="-10" y="-14" as="offset" />
          </mxGeometry>
        </mxCell>
        <mxCell id="IInlYEUEXmsP3QdokoEn-27" style="edgeStyle=orthogonalEdgeStyle;rounded=0;orthogonalLoop=1;jettySize=auto;html=1;exitX=0.25;exitY=0;exitDx=0;exitDy=0;entryX=0.25;entryY=1;entryDx=0;entryDy=0;" edge="1" parent="1" source="IInlYEUEXmsP3QdokoEn-17" target="IInlYEUEXmsP3QdokoEn-16">
          <mxGeometry relative="1" as="geometry" />
        </mxCell>
        <mxCell id="IInlYEUEXmsP3QdokoEn-40" style="edgeStyle=orthogonalEdgeStyle;rounded=0;orthogonalLoop=1;jettySize=auto;html=1;exitX=0.75;exitY=1;exitDx=0;exitDy=0;entryX=0.75;entryY=0;entryDx=0;entryDy=0;" edge="1" parent="1" source="IInlYEUEXmsP3QdokoEn-17" target="IInlYEUEXmsP3QdokoEn-38">
          <mxGeometry relative="1" as="geometry" />
        </mxCell>
        <mxCell id="IInlYEUEXmsP3QdokoEn-58" value="&lt;font face=&quot;Courier New&quot;&gt;queries&lt;/font&gt;" style="edgeLabel;html=1;align=center;verticalAlign=middle;resizable=0;points=[];labelBackgroundColor=none;" vertex="1" connectable="0" parent="IInlYEUEXmsP3QdokoEn-40">
          <mxGeometry x="-0.0143" y="5" relative="1" as="geometry">
            <mxPoint x="25" as="offset" />
          </mxGeometry>
        </mxCell>
        <mxCell id="IInlYEUEXmsP3QdokoEn-17" value="&lt;span style=&quot;font-family: &amp;quot;Courier New&amp;quot;;&quot;&gt;DatabaseService&lt;/span&gt;" style="rounded=0;whiteSpace=wrap;html=1;" vertex="1" parent="1">
          <mxGeometry x="445" y="320" width="120" height="60" as="geometry" />
        </mxCell>
        <mxCell id="IInlYEUEXmsP3QdokoEn-19" value="&lt;span style=&quot;color: rgb(0, 0, 0); font-family: &amp;quot;Courier New&amp;quot;; font-size: 12px; font-style: normal; font-variant-ligatures: normal; font-variant-caps: normal; font-weight: 400; letter-spacing: normal; orphans: 2; text-align: center; text-indent: 0px; text-transform: none; widows: 2; word-spacing: 0px; -webkit-text-stroke-width: 0px; white-space: normal; text-decoration-thickness: initial; text-decoration-style: initial; text-decoration-color: initial; float: none; display: inline !important;&quot;&gt;OpenSSL Library&lt;/span&gt;" style="text;whiteSpace=wrap;html=1;" vertex="1" parent="1">
          <mxGeometry x="792.5" y="270" width="115" height="25" as="geometry" />
        </mxCell>
        <mxCell id="IInlYEUEXmsP3QdokoEn-23" style="edgeStyle=orthogonalEdgeStyle;rounded=0;orthogonalLoop=1;jettySize=auto;html=1;exitX=0;exitY=0.75;exitDx=0;exitDy=0;entryX=1;entryY=0.75;entryDx=0;entryDy=0;" edge="1" parent="1" source="IInlYEUEXmsP3QdokoEn-20" target="IInlYEUEXmsP3QdokoEn-17">
          <mxGeometry relative="1" as="geometry" />
        </mxCell>
        <mxCell id="IInlYEUEXmsP3QdokoEn-24" value="&lt;font face=&quot;Courier New&quot;&gt;hash digest&lt;/font&gt;" style="edgeLabel;html=1;align=center;verticalAlign=middle;resizable=0;points=[];labelBackgroundColor=none;" vertex="1" connectable="0" parent="IInlYEUEXmsP3QdokoEn-23">
          <mxGeometry x="-0.037" y="-2" relative="1" as="geometry">
            <mxPoint x="-12" y="17" as="offset" />
          </mxGeometry>
        </mxCell>
        <mxCell id="IInlYEUEXmsP3QdokoEn-20" value="&lt;font face=&quot;Courier New&quot;&gt;Message Digests&lt;/font&gt;" style="rounded=0;whiteSpace=wrap;html=1;" vertex="1" parent="1">
          <mxGeometry x="790" y="320" width="120" height="60" as="geometry" />
        </mxCell>
        <mxCell id="IInlYEUEXmsP3QdokoEn-37" value="&lt;span style=&quot;color: rgb(0, 0, 0); font-family: &amp;quot;Courier New&amp;quot;; font-size: 12px; font-style: normal; font-variant-ligatures: normal; font-variant-caps: normal; font-weight: 400; letter-spacing: normal; orphans: 2; text-indent: 0px; text-transform: none; widows: 2; word-spacing: 0px; -webkit-text-stroke-width: 0px; white-space: normal; text-decoration-thickness: initial; text-decoration-style: initial; text-decoration-color: initial; float: none; display: inline !important;&quot;&gt;pqxx Library&lt;/span&gt;" style="text;whiteSpace=wrap;html=1;align=center;" vertex="1" parent="1">
          <mxGeometry x="445" y="590" width="120" height="20" as="geometry" />
        </mxCell>
        <mxCell id="IInlYEUEXmsP3QdokoEn-39" style="edgeStyle=orthogonalEdgeStyle;rounded=0;orthogonalLoop=1;jettySize=auto;html=1;exitX=0.25;exitY=0;exitDx=0;exitDy=0;entryX=0.25;entryY=1;entryDx=0;entryDy=0;" edge="1" parent="1" source="IInlYEUEXmsP3QdokoEn-38" target="IInlYEUEXmsP3QdokoEn-17">
          <mxGeometry relative="1" as="geometry" />
        </mxCell>
        <mxCell id="IInlYEUEXmsP3QdokoEn-57" value="&lt;font face=&quot;Courier New&quot;&gt;pqxx::result&lt;/font&gt;" style="edgeLabel;html=1;align=center;verticalAlign=middle;resizable=0;points=[];labelBackgroundColor=none;" vertex="1" connectable="0" parent="IInlYEUEXmsP3QdokoEn-39">
          <mxGeometry x="0.0143" relative="1" as="geometry">
            <mxPoint x="-50" as="offset" />
          </mxGeometry>
        </mxCell>
        <mxCell id="IInlYEUEXmsP3QdokoEn-38" value="pqxx::connection" style="rounded=0;whiteSpace=wrap;html=1;" vertex="1" parent="1">
          <mxGeometry x="445" y="520" width="120" height="60" as="geometry" />
        </mxCell>
        <mxCell id="IInlYEUEXmsP3QdokoEn-52" style="edgeStyle=orthogonalEdgeStyle;rounded=0;orthogonalLoop=1;jettySize=auto;html=1;" edge="1" parent="1" source="IInlYEUEXmsP3QdokoEn-46" target="IInlYEUEXmsP3QdokoEn-4">
          <mxGeometry relative="1" as="geometry">
            <mxPoint x="80" y="240" as="targetPoint" />
            <Array as="points">
              <mxPoint x="20" y="170" />
              <mxPoint x="20" y="200" />
            </Array>
          </mxGeometry>
        </mxCell>
        <mxCell id="IInlYEUEXmsP3QdokoEn-55" value="" style="group" vertex="1" connectable="0" parent="1">
          <mxGeometry x="-200" y="140" width="100" height="100" as="geometry" />
        </mxCell>
        <mxCell id="IInlYEUEXmsP3QdokoEn-46" value="" style="rounded=0;whiteSpace=wrap;html=1;strokeWidth=3;" vertex="1" parent="IInlYEUEXmsP3QdokoEn-55">
          <mxGeometry width="100" height="100" as="geometry" />
        </mxCell>
        <mxCell id="IInlYEUEXmsP3QdokoEn-10" value="" style="sketch=0;outlineConnect=0;fontColor=#232F3E;gradientColor=none;fillColor=#232F3D;strokeColor=none;dashed=0;verticalLabelPosition=bottom;verticalAlign=top;align=center;html=1;fontSize=12;fontStyle=0;aspect=fixed;pointerEvents=1;shape=mxgraph.aws4.user;" vertex="1" parent="IInlYEUEXmsP3QdokoEn-55">
          <mxGeometry x="11" y="11" width="78" height="78" as="geometry" />
        </mxCell>
        <mxCell id="IInlYEUEXmsP3QdokoEn-60" value="&lt;span style=&quot;font-family: &amp;quot;Courier New&amp;quot;; font-size: 11px; text-wrap-mode: nowrap;&quot;&gt;return codes&lt;/span&gt;" style="text;html=1;align=center;verticalAlign=middle;whiteSpace=wrap;rounded=0;" vertex="1" parent="1">
          <mxGeometry x="310" y="310" width="80" height="30" as="geometry" />
        </mxCell>
        <mxCell id="IInlYEUEXmsP3QdokoEn-63" value="" style="endArrow=none;html=1;rounded=0;exitX=0.5;exitY=0.333;exitDx=0;exitDy=0;strokeColor=#000000;strokeWidth=0.5;exitPerimeter=0;" edge="1" parent="1" source="IInlYEUEXmsP3QdokoEn-60">
          <mxGeometry width="50" height="50" relative="1" as="geometry">
            <mxPoint x="430" y="320" as="sourcePoint" />
            <mxPoint x="475" y="277" as="targetPoint" />
          </mxGeometry>
        </mxCell>
        <mxCell id="IInlYEUEXmsP3QdokoEn-64" value="" style="endArrow=none;html=1;rounded=0;strokeColor=#000000;strokeWidth=0.5;entryX=0.333;entryY=0.667;entryDx=0;entryDy=0;entryPerimeter=0;" edge="1" parent="1" target="IInlYEUEXmsP3QdokoEn-65">
          <mxGeometry width="50" height="50" relative="1" as="geometry">
            <mxPoint x="535" y="277" as="sourcePoint" />
            <mxPoint x="660" y="260" as="targetPoint" />
          </mxGeometry>
        </mxCell>
        <mxCell id="IInlYEUEXmsP3QdokoEn-65" value="&lt;span style=&quot;font-size: 11px; text-wrap-mode: nowrap;&quot;&gt;&lt;font face=&quot;Courier New&quot;&gt;function calls&lt;/font&gt;&lt;/span&gt;" style="text;html=1;align=center;verticalAlign=middle;whiteSpace=wrap;rounded=0;" vertex="1" parent="1">
          <mxGeometry x="670" y="210" width="90" height="30" as="geometry" />
        </mxCell>
        <mxCell id="IInlYEUEXmsP3QdokoEn-67" value="&lt;font face=&quot;Courier New&quot;&gt;configuration&lt;/font&gt;" style="text;html=1;align=center;verticalAlign=middle;whiteSpace=wrap;rounded=0;" vertex="1" parent="1">
          <mxGeometry x="-50" y="350" width="100" height="30" as="geometry" />
        </mxCell>
        <mxCell id="IInlYEUEXmsP3QdokoEn-68" value="" style="endArrow=none;html=1;rounded=0;exitX=0.5;exitY=0.333;exitDx=0;exitDy=0;strokeColor=#000000;strokeWidth=0.5;exitPerimeter=0;" edge="1" parent="1">
          <mxGeometry width="50" height="50" relative="1" as="geometry">
            <mxPoint y="360" as="sourcePoint" />
            <mxPoint x="197" y="277" as="targetPoint" />
          </mxGeometry>
        </mxCell>
        <mxCell id="IInlYEUEXmsP3QdokoEn-69" value="" style="endArrow=none;html=1;rounded=0;exitX=0.5;exitY=0.333;exitDx=0;exitDy=0;strokeColor=#000000;strokeWidth=0.5;exitPerimeter=0;" edge="1" parent="1">
          <mxGeometry width="50" height="50" relative="1" as="geometry">
            <mxPoint y="360" as="sourcePoint" />
            <mxPoint x="137" y="277" as="targetPoint" />
          </mxGeometry>
        </mxCell>
        <mxCell id="IInlYEUEXmsP3QdokoEn-72" value="&lt;span style=&quot;color: rgb(0, 0, 0); font-size: 12px; font-style: normal; font-variant-ligatures: normal; font-variant-caps: normal; font-weight: 400; letter-spacing: normal; orphans: 2; text-indent: 0px; text-transform: none; widows: 2; word-spacing: 0px; -webkit-text-stroke-width: 0px; white-space: normal; text-decoration-thickness: initial; text-decoration-style: initial; text-decoration-color: initial; float: none; display: inline !important;&quot;&gt;&lt;font face=&quot;Courier New&quot;&gt;PostgreSQL database&lt;/font&gt;&lt;/span&gt;" style="text;whiteSpace=wrap;html=1;align=center;" vertex="1" parent="1">
          <mxGeometry x="700" y="470" width="120" height="40" as="geometry" />
        </mxCell>
        <mxCell id="IInlYEUEXmsP3QdokoEn-76" style="edgeStyle=orthogonalEdgeStyle;rounded=0;orthogonalLoop=1;jettySize=auto;html=1;exitX=0;exitY=0.75;exitDx=0;exitDy=0;entryX=1;entryY=0.75;entryDx=0;entryDy=0;" edge="1" parent="1" source="IInlYEUEXmsP3QdokoEn-71" target="IInlYEUEXmsP3QdokoEn-38">
          <mxGeometry relative="1" as="geometry">
            <Array as="points">
              <mxPoint x="680" y="565" />
            </Array>
          </mxGeometry>
        </mxCell>
        <mxCell id="IInlYEUEXmsP3QdokoEn-70" value="" style="shape=image;verticalLabelPosition=bottom;labelBackgroundColor=default;verticalAlign=top;aspect=fixed;imageAspect=0;image=https://static-00.iconduck.com/assets.00/database-postgres-icon-460x512-hivzqk0m.png;container=0;" vertex="1" parent="1">
          <mxGeometry x="710.5366666666666" y="514.9966666666667" width="98.92" height="110" as="geometry" />
        </mxCell>
        <mxCell id="IInlYEUEXmsP3QdokoEn-75" style="edgeStyle=orthogonalEdgeStyle;rounded=0;orthogonalLoop=1;jettySize=auto;html=1;exitX=1;exitY=0.25;exitDx=0;exitDy=0;entryX=0;entryY=0.404;entryDx=0;entryDy=0;entryPerimeter=0;" edge="1" parent="1" source="IInlYEUEXmsP3QdokoEn-38" target="IInlYEUEXmsP3QdokoEn-71">
          <mxGeometry relative="1" as="geometry" />
        </mxCell>
      </root>
    </mxGraphModel>
  </diagram>
</mxfile>
